<svg width="169" height="169" viewBox="0 0 169 169" fill="none" xmlns="http://www.w3.org/2000/svg">
<path d="M68.1681 57.2986C65.9599 57.2469 63.751 57.3645 61.5608 57.6502C59.9852 57.9546 56.5292 58.8311 52.3642 62.0691C49.0343 64.6617 47.3957 67.0968 44.2128 71.6102C38.2201 80.1174 44.7906 70.4031 33.4984 86.3889C27.3691 95.0745 26.0875 96.9901 22.9047 99.3045C20.2359 101.175 17.3397 102.699 14.2859 103.839C12.2815 104.566 10.2162 105.112 8.11455 105.471L5 105.35C8.90501 103.845 12.5639 101.766 15.8563 99.1838C21.7492 94.5444 23.1568 90.7868 31.8965 78.0759C40.5678 65.4804 43.6561 62.6569 46.9965 60.5262C53.9872 56.081 59.9379 56.0128 61.1774 56.0233C62.6828 56.0314 64.1836 56.1896 65.6575 56.4956L68.1681 57.2986Z" fill="#FDDDDD" stroke="black" stroke-miterlimit="10"/>
<path d="M103.799 57.2964C101.59 57.2446 99.3815 57.3621 97.1913 57.648C95.6157 57.9524 92.1597 58.8289 87.9947 62.0669C84.6648 64.6595 83.0209 67.0946 79.8433 71.608C73.8506 80.1152 80.4211 70.4009 69.1289 86.3867C62.9838 95.0723 61.7128 96.9879 58.5352 99.3023C55.8664 101.173 52.9702 102.697 49.9164 103.837C47.912 104.563 45.8467 105.11 43.745 105.469L40.6305 105.348C44.5355 103.842 48.1944 101.764 51.4868 99.1816C57.3797 94.5422 58.7873 90.7846 67.5269 78.0737C76.1983 65.4782 79.2813 62.6547 82.627 60.524C89.6177 56.0789 95.5684 56.0106 96.7816 56.0211C98.2888 56.029 99.7913 56.1872 101.267 56.4934L103.799 57.2964Z" fill="#D8E5E0" stroke="black" stroke-width="0.5" stroke-miterlimit="10"/>
<path d="M129.413 104.188C127.205 104.24 124.996 104.122 122.806 103.837C121.23 103.532 117.774 102.656 113.609 99.4176C110.28 96.8251 108.641 94.3899 105.458 89.8766C99.4653 81.3694 106.036 91.0836 94.7436 75.0979C88.6143 66.4175 87.3328 64.4809 84.15 62.1823C81.4831 60.3059 78.5888 58.7753 75.5364 57.6269C73.5326 56.8997 71.467 56.3552 69.365 56L66.2505 56.1155C70.1538 57.6214 73.8109 59.6997 77.1015 62.282C82.9945 66.9213 84.4021 70.679 93.1469 83.3899C101.813 95.9854 104.901 98.8088 108.242 100.94C115.238 105.385 121.183 105.453 122.423 105.442C123.928 105.435 125.429 105.277 126.903 104.97L129.413 104.188Z" fill="#EFEDE4" stroke="black" stroke-miterlimit="10"/>
<path d="M164 104.188C161.792 104.24 159.583 104.122 157.393 103.836C155.817 103.532 152.356 102.656 148.191 99.4176C144.861 96.825 143.223 94.3899 140.04 89.8765C134.047 81.3693 140.618 91.0835 129.331 75.0978C123.196 66.4174 121.915 64.4809 118.732 62.1822C116.065 60.3111 113.171 58.7874 110.118 57.6478C108.115 56.92 106.049 56.3755 103.947 56.0209L100.832 56.1364C104.736 57.6423 108.393 59.7206 111.683 62.3029C117.576 66.9422 118.989 70.6999 127.729 83.4108C136.395 96.0063 139.483 98.8298 142.829 100.96C149.819 105.406 155.765 105.474 157.01 105.463C158.517 105.456 160.019 105.297 161.495 104.991L164 104.188Z" fill="#DFF3FE" stroke="black" stroke-miterlimit="10"/>
<path d="M37.9178 98.4658V76.1221C37.9178 75.8929 37.9751 75.7158 38.0897 75.5908C38.2147 75.4554 38.3918 75.3877 38.621 75.3877H48.8553C49.5949 75.3877 50.2876 75.4919 50.9335 75.7002C51.5793 75.8981 52.1731 76.1794 52.7147 76.5439C53.2668 76.8981 53.7616 77.3252 54.1991 77.8252C54.6366 78.3148 55.0064 78.8512 55.3085 79.4346C55.6106 80.0075 55.8397 80.6117 55.996 81.2471C56.1626 81.8825 56.246 82.5231 56.246 83.1689C56.246 84.1273 56.0689 85.0648 55.7147 85.9814C55.371 86.8981 54.8762 87.7158 54.2303 88.4346C53.5949 89.1533 52.8293 89.7367 51.9335 90.1846C51.0376 90.6221 50.0481 90.846 48.9647 90.8564H44.121V98.4658C44.121 98.9242 43.8762 99.1533 43.3866 99.1533H38.621C38.4126 99.1533 38.2408 99.096 38.1053 98.9814C37.9803 98.8669 37.9178 98.695 37.9178 98.4658ZM44.121 85.8096H47.5116C47.897 85.8096 48.2408 85.7314 48.5428 85.5752C48.8553 85.4189 49.1158 85.221 49.3241 84.9814C49.5324 84.7314 49.6887 84.4502 49.7928 84.1377C49.9074 83.8148 49.9647 83.4814 49.9647 83.1377C49.9647 82.8148 49.9074 82.4971 49.7928 82.1846C49.6887 81.8617 49.5272 81.5752 49.3085 81.3252C49.1001 81.0752 48.8449 80.8721 48.5428 80.7158C48.2408 80.5492 47.897 80.4658 47.5116 80.4658H44.121V85.8096ZM59.7303 98.4658V76.1221C59.7303 75.8929 59.7876 75.7158 59.9022 75.5908C60.0272 75.4554 60.2043 75.3877 60.4335 75.3877H76.3241C76.5637 75.3877 76.746 75.4606 76.871 75.6064C76.996 75.7419 77.0585 75.9294 77.0585 76.1689V80.1221C77.0585 80.2992 76.9908 80.4762 76.8553 80.6533C76.7303 80.82 76.5481 80.9033 76.3085 80.9033H65.9335V84.8564H73.9335C74.1314 84.8564 74.2981 84.9033 74.4335 84.9971C74.5689 85.0908 74.6366 85.2471 74.6366 85.4658V88.9346C74.6366 89.0804 74.5793 89.2262 74.4647 89.3721C74.3501 89.5075 74.1783 89.5752 73.9491 89.5752H65.9335V93.6533H76.6835C77.1626 93.6533 77.4022 93.8981 77.4022 94.3877V98.4189C77.4022 98.5231 77.3606 98.6169 77.2772 98.7002C77.2356 99.0023 77.0168 99.1533 76.621 99.1533H60.4335C60.2251 99.1533 60.0533 99.096 59.9178 98.9814C59.7928 98.8669 59.7303 98.695 59.7303 98.4658ZM80.4803 87.2939C80.4803 86.1585 80.621 85.0752 80.9022 84.0439C81.1939 83.0023 81.6053 82.0283 82.1366 81.1221C82.6678 80.2054 83.3033 79.3773 84.0428 78.6377C84.7928 77.8877 85.621 77.2471 86.5272 76.7158C87.4335 76.1846 88.4022 75.7731 89.4335 75.4814C90.4751 75.1898 91.5637 75.0439 92.6991 75.0439C93.9803 75.0439 95.1887 75.221 96.3241 75.5752C97.4595 75.9294 98.5272 76.445 99.5272 77.1221C99.7043 77.2262 99.8397 77.3669 99.9335 77.5439C100.038 77.721 100.022 77.9189 99.8866 78.1377L97.2928 81.8877C97.1574 82.0544 97.0168 82.1689 96.871 82.2314C96.7356 82.2835 96.5481 82.2367 96.3085 82.0908C95.7668 81.7054 95.1835 81.4085 94.5585 81.2002C93.9439 80.9919 93.2876 80.8877 92.5897 80.8877C91.7043 80.8877 90.8918 81.0544 90.1522 81.3877C89.4126 81.721 88.7772 82.1794 88.246 82.7627C87.7251 83.3356 87.3137 84.0075 87.0116 84.7783C86.7199 85.5492 86.5741 86.3721 86.5741 87.2471C86.5741 88.1221 86.7199 88.945 87.0116 89.7158C87.3137 90.4867 87.7251 91.1585 88.246 91.7314C88.7772 92.2939 89.4126 92.7419 90.1522 93.0752C90.8918 93.4085 91.7043 93.5752 92.5897 93.5752C92.9647 93.5752 93.3345 93.5492 93.6991 93.4971C94.0637 93.4346 94.4543 93.3617 94.871 93.2783V89.0908C94.871 88.8929 94.9283 88.7262 95.0428 88.5908C95.1678 88.4554 95.3449 88.3877 95.5741 88.3877H99.9335C100.09 88.3877 100.256 88.4502 100.433 88.5752C100.621 88.7002 100.715 88.8721 100.715 89.0908V96.8408C100.715 97.1325 100.558 97.3669 100.246 97.5439C99.746 97.8877 99.1887 98.1794 98.5741 98.4189C97.9699 98.6585 97.3345 98.8617 96.6678 99.0283C96.0116 99.1846 95.3449 99.3044 94.6678 99.3877C93.9908 99.471 93.3345 99.5127 92.6991 99.5127C91.5637 99.5127 90.4751 99.3669 89.4335 99.0752C88.4022 98.7835 87.4335 98.3721 86.5272 97.8408C85.621 97.3096 84.7928 96.6742 84.0428 95.9346C83.3033 95.1846 82.6678 94.3617 82.1366 93.4658C81.6053 92.5596 81.1939 91.5908 80.9022 90.5596C80.621 89.5179 80.4803 88.4294 80.4803 87.2939ZM105.387 98.4658V76.1221C105.387 75.8929 105.444 75.7158 105.558 75.5908C105.673 75.4554 105.85 75.3877 106.09 75.3877H116.418C117.512 75.3877 118.538 75.596 119.496 76.0127C120.465 76.4189 121.303 76.9762 122.012 77.6846C122.73 78.3825 123.293 79.2054 123.699 80.1533C124.116 81.1012 124.324 82.1064 124.324 83.1689C124.324 83.8981 124.225 84.5908 124.027 85.2471C123.829 85.9033 123.553 86.5179 123.199 87.0908C122.855 87.6533 122.439 88.1689 121.949 88.6377C121.47 89.096 120.939 89.4919 120.355 89.8252L124.48 97.5752C124.553 97.721 124.647 97.8981 124.762 98.1064C124.876 98.3044 124.933 98.4762 124.933 98.6221C124.933 98.7887 124.876 98.9189 124.762 99.0127C124.657 99.1064 124.506 99.1533 124.308 99.1533H118.824C118.647 99.1533 118.486 99.1012 118.34 98.9971C118.194 98.8929 118.1 98.7471 118.058 98.5596L114.168 91.2471H111.574V98.4658C111.574 98.9242 111.329 99.1533 110.84 99.1533H106.09C105.881 99.1533 105.71 99.096 105.574 98.9814C105.449 98.8669 105.387 98.695 105.387 98.4658ZM111.574 86.1689H114.527C114.715 86.1689 114.881 86.1637 115.027 86.1533C115.183 86.1325 115.35 86.1117 115.527 86.0908C115.902 86.0492 116.236 85.945 116.527 85.7783C116.829 85.6012 117.079 85.3825 117.277 85.1221C117.486 84.8512 117.642 84.5544 117.746 84.2314C117.861 83.9085 117.918 83.5752 117.918 83.2314C117.918 82.9085 117.855 82.5908 117.73 82.2783C117.616 81.9554 117.449 81.6637 117.23 81.4033C117.022 81.1325 116.767 80.9085 116.465 80.7314C116.173 80.5439 115.845 80.4242 115.48 80.3721C115.178 80.3512 114.897 80.3356 114.637 80.3252C114.376 80.3044 114.095 80.2939 113.793 80.2939H111.574V86.1689Z" fill="white"/>
<path d="M38.0897 75.5908L37.3549 74.9125L37.3526 74.9151L38.0897 75.5908ZM50.9335 75.7002L50.6265 76.6519L50.6335 76.6542L50.6405 76.6563L50.9335 75.7002ZM52.7147 76.5439L52.1563 77.3735L52.1655 77.3797L52.1748 77.3856L52.7147 76.5439ZM54.1991 77.8252L53.4465 78.4837L53.4534 78.4915L54.1991 77.8252ZM55.3085 79.4346L54.4205 79.8944L54.4239 79.901L55.3085 79.4346ZM55.996 81.2471L55.0249 81.4859L55.0267 81.4933L55.0287 81.5008L55.996 81.2471ZM55.7147 85.9814L54.7819 85.621L54.7784 85.6303L55.7147 85.9814ZM54.2303 88.4346L53.4865 87.7662L53.4811 87.7722L54.2303 88.4346ZM51.9335 90.1846L52.3723 91.0832L52.3807 91.079L51.9335 90.1846ZM48.9647 90.8564L48.9647 91.8565L48.9743 91.8564L48.9647 90.8564ZM44.121 90.8564V89.8564H43.121V90.8564H44.121ZM38.1053 98.9814L37.4296 99.7186L37.4443 99.732L37.4594 99.7448L38.1053 98.9814ZM44.121 85.8096H43.121V86.8096H44.121V85.8096ZM48.5428 85.5752L48.0956 84.6807L48.0834 84.687L48.5428 85.5752ZM49.3241 84.9814L50.0787 85.6376L50.0856 85.6297L50.0923 85.6216L49.3241 84.9814ZM49.7928 84.1377L48.8504 83.8033L48.8472 83.8123L48.8442 83.8215L49.7928 84.1377ZM49.7928 82.1846L48.8411 82.4916L48.8472 82.5103L48.854 82.5288L49.7928 82.1846ZM49.3085 81.3252L48.5403 81.9654L48.548 81.9746L48.5559 81.9837L49.3085 81.3252ZM48.5428 80.7158L48.0598 81.5914L48.0715 81.5979L48.0834 81.604L48.5428 80.7158ZM44.121 80.4658V79.4658H43.121V80.4658H44.121ZM38.9178 98.4658V76.1221H36.9178V98.4658H38.9178ZM38.9178 76.1221C38.9178 76.0888 38.9222 76.0944 38.9123 76.1252C38.9011 76.1598 38.8757 76.2133 38.8269 76.2665L37.3526 74.9151C37.017 75.2812 36.9178 75.7319 36.9178 76.1221H38.9178ZM38.8245 76.2691C38.7795 76.3179 38.7245 76.353 38.6734 76.3725C38.6269 76.3903 38.6037 76.3877 38.621 76.3877V74.3877C38.1855 74.3877 37.7135 74.524 37.3549 74.9125L38.8245 76.2691ZM38.621 76.3877H48.8553V74.3877H38.621V76.3877ZM48.8553 76.3877C49.5 76.3877 50.0883 76.4783 50.6265 76.6519L51.2405 74.7485C50.4869 74.5054 49.6898 74.3877 48.8553 74.3877V76.3877ZM50.6405 76.6563C51.1954 76.8264 51.6992 77.0659 52.1563 77.3735L53.2731 75.7144C52.6469 75.2929 51.9632 74.9699 51.2265 74.7441L50.6405 76.6563ZM52.1748 77.3856C52.6467 77.6884 53.0701 78.0535 53.4465 78.4837L54.9517 77.1667C54.4531 76.5969 53.8869 76.1078 53.2547 75.7023L52.1748 77.3856ZM53.4534 78.4915C53.835 78.9185 54.157 79.3856 54.4205 79.8944L56.1965 78.9747C55.8558 78.3169 55.4382 77.7111 54.9448 77.1589L53.4534 78.4915ZM54.4239 79.901C54.6876 80.4011 54.8879 80.9287 55.0249 81.4859L56.967 81.0083C56.7915 80.2946 56.5335 79.6139 56.193 78.9682L54.4239 79.901ZM55.0287 81.5008C55.174 82.0548 55.246 82.6102 55.246 83.1689H57.246C57.246 82.436 57.1513 81.7102 56.9633 80.9934L55.0287 81.5008ZM55.246 83.1689C55.246 84.0009 55.0928 84.8164 54.7819 85.621L56.6475 86.3418C57.045 85.3132 57.246 84.2537 57.246 83.1689H55.246ZM54.7784 85.6303C54.4779 86.4317 54.0478 87.1415 53.4865 87.7662L54.9742 89.1029C55.7045 88.2901 56.2641 87.3645 56.6511 86.3326L54.7784 85.6303ZM53.4811 87.7722C52.9343 88.3908 52.2726 88.897 51.4863 89.2901L52.3807 91.079C53.386 90.5763 54.2556 89.9159 54.9796 89.0969L53.4811 87.7722ZM51.4946 89.286C50.7438 89.6527 49.9027 89.8474 48.9551 89.8565L48.9743 91.8564C50.1934 91.8447 51.3314 91.5915 52.3723 91.0831L51.4946 89.286ZM48.9647 89.8564H44.121V91.8564H48.9647V89.8564ZM43.121 90.8564V98.4658H45.121V90.8564H43.121ZM43.121 98.4658C43.121 98.4941 43.1169 98.4765 43.133 98.4312C43.1511 98.3804 43.1886 98.3126 43.254 98.2514C43.3868 98.1271 43.4931 98.1533 43.3866 98.1533V100.153C43.7697 100.153 44.2432 100.065 44.6208 99.7115C45.0108 99.3464 45.121 98.8666 45.121 98.4658H43.121ZM43.3866 98.1533H38.621V100.153H43.3866V98.1533ZM38.621 98.1533C38.6085 98.1533 38.622 98.1517 38.652 98.1617C38.6842 98.1724 38.7198 98.1914 38.7513 98.2181L37.4594 99.7448C37.8059 100.038 38.2195 100.153 38.621 100.153V98.1533ZM38.7811 98.2443C38.8463 98.3041 38.8852 98.3718 38.9045 98.4249C38.9217 98.4722 38.9178 98.4921 38.9178 98.4658H36.9178C36.9178 98.8726 37.0328 99.3549 37.4296 99.7186L38.7811 98.2443ZM44.121 86.8096H47.5116V84.8096H44.121V86.8096ZM47.5116 86.8096C48.0354 86.8096 48.5402 86.7024 49.0023 86.4634L48.0834 84.687C47.9413 84.7605 47.7586 84.8096 47.5116 84.8096V86.8096ZM48.9901 86.4696C49.4078 86.2607 49.7762 85.9855 50.0787 85.6376L48.5695 84.3253C48.4553 84.4566 48.3029 84.5772 48.0956 84.6808L48.9901 86.4696ZM50.0923 85.6216C50.3815 85.2746 50.5984 84.8832 50.7415 84.4539L48.8442 83.8215C48.7789 84.0172 48.6834 84.1882 48.5559 84.3413L50.0923 85.6216ZM50.7353 84.4721C50.8881 84.0415 50.9647 83.595 50.9647 83.1377H48.9647C48.9647 83.3679 48.9268 83.5881 48.8504 83.8033L50.7353 84.4721ZM50.9647 83.1377C50.9647 82.6937 50.8855 82.2596 50.7317 81.8403L48.854 82.5288C48.9294 82.7345 48.9647 82.9358 48.9647 83.1377H50.9647ZM50.7446 81.8776C50.5995 81.428 50.3713 81.0213 50.061 80.6667L48.5559 81.9837C48.6831 82.1291 48.7778 82.2953 48.8411 82.4916L50.7446 81.8776ZM50.0767 80.685C49.7792 80.328 49.4174 80.0423 49.0023 79.8276L48.0834 81.604C48.2725 81.7018 48.4211 81.8224 48.5403 81.9654L50.0767 80.685ZM49.0259 79.8402C48.5592 79.5827 48.0458 79.4658 47.5116 79.4658V81.4658C47.7482 81.4658 47.9223 81.5156 48.0598 81.5914L49.0259 79.8402ZM47.5116 79.4658H44.121V81.4658H47.5116V79.4658ZM43.121 80.4658V85.8096H45.121V80.4658H43.121ZM59.9022 75.5908L59.1674 74.9125L59.1651 74.9151L59.9022 75.5908ZM76.871 75.6064L76.1117 76.2572L76.1237 76.2712L76.1362 76.2847L76.871 75.6064ZM76.8553 80.6533L76.061 80.0458L76.0553 80.0533L76.8553 80.6533ZM65.9335 80.9033V79.9033H64.9335V80.9033H65.9335ZM65.9335 84.8564H64.9335V85.8564H65.9335V84.8564ZM74.4647 89.3721L75.2281 90.018L75.2398 90.0042L75.251 89.9899L74.4647 89.3721ZM65.9335 89.5752V88.5752H64.9335V89.5752H65.9335ZM65.9335 93.6533H64.9335V94.6533H65.9335V93.6533ZM77.2772 98.7002L76.5701 97.9931L76.3325 98.2307L76.2866 98.5636L77.2772 98.7002ZM59.9178 98.9814L59.2421 99.7186L59.2568 99.732L59.2719 99.7448L59.9178 98.9814ZM60.7303 98.4658V76.1221H58.7303V98.4658H60.7303ZM60.7303 76.1221C60.7303 76.0888 60.7347 76.0944 60.7248 76.1252C60.7136 76.1598 60.6882 76.2133 60.6394 76.2665L59.1651 74.9151C58.8295 75.2812 58.7303 75.7319 58.7303 76.1221H60.7303ZM60.637 76.2691C60.592 76.3179 60.537 76.353 60.4859 76.3725C60.4394 76.3903 60.4162 76.3877 60.4335 76.3877V74.3877C59.998 74.3877 59.526 74.524 59.1674 74.9125L60.637 76.2691ZM60.4335 76.3877H76.3241V74.3877H60.4335V76.3877ZM76.3241 76.3877C76.3439 76.3877 76.319 76.3908 76.2691 76.3709C76.2139 76.3488 76.1566 76.3096 76.1117 76.2572L77.6302 74.9557C77.2696 74.5349 76.7773 74.3877 76.3241 74.3877V76.3877ZM76.1362 76.2847C76.0957 76.2409 76.0732 76.1957 76.0629 76.1649C76.0538 76.1377 76.0585 76.1346 76.0585 76.1689H78.0585C78.0585 75.7556 77.9475 75.2984 77.6058 74.9282L76.1362 76.2847ZM76.0585 76.1689V80.1221H78.0585V76.1689H76.0585ZM76.0585 80.1221C76.0585 80.0801 76.067 80.0479 76.0736 80.0306C76.0795 80.0153 76.0803 80.0206 76.061 80.0459L77.6497 81.2608C77.8834 80.9551 78.0585 80.5702 78.0585 80.1221H76.0585ZM76.0553 80.0533C76.089 80.0085 76.1423 79.9619 76.2091 79.9313C76.2714 79.9029 76.3124 79.9033 76.3085 79.9033V81.9033C76.809 81.9033 77.3114 81.7119 77.6553 81.2533L76.0553 80.0533ZM76.3085 79.9033H65.9335V81.9033H76.3085V79.9033ZM64.9335 80.9033V84.8564H66.9335V80.9033H64.9335ZM65.9335 85.8564H73.9335V83.8564H65.9335V85.8564ZM73.9335 85.8564C73.9537 85.8564 73.9525 85.8588 73.9362 85.8543C73.9184 85.8493 73.8922 85.8386 73.8643 85.8193L75.0027 84.1749C74.6687 83.9436 74.293 83.8564 73.9335 83.8564V85.8564ZM73.8643 85.8193C73.7731 85.7562 73.706 85.6692 73.6683 85.5822C73.6346 85.5045 73.6366 85.4559 73.6366 85.4658H75.6366C75.6366 85.0376 75.4926 84.5141 75.0027 84.1749L73.8643 85.8193ZM73.6366 85.4658V88.9346H75.6366V85.4658H73.6366ZM73.6366 88.9346C73.6366 88.8733 73.6492 88.8225 73.6629 88.7877C73.6757 88.7551 73.6862 88.7443 73.6784 88.7542L75.251 89.9899C75.4659 89.7165 75.6366 89.3593 75.6366 88.9346H73.6366ZM73.7013 88.7261C73.7553 88.6624 73.8221 88.6181 73.8834 88.594C73.9385 88.5723 73.9674 88.5752 73.9491 88.5752V90.5752C74.3802 90.5752 74.8711 90.4399 75.2281 90.018L73.7013 88.7261ZM73.9491 88.5752H65.9335V90.5752H73.9491V88.5752ZM64.9335 89.5752V93.6533H66.9335V89.5752H64.9335ZM65.9335 94.6533H76.6835V92.6533H65.9335V94.6533ZM76.6835 94.6533C76.7634 94.6533 76.6409 94.6723 76.5079 94.5364C76.3787 94.4044 76.4022 94.2917 76.4022 94.3877H78.4022C78.4022 93.9941 78.3059 93.5142 77.9372 93.1375C77.5646 92.7567 77.0827 92.6533 76.6835 92.6533V94.6533ZM76.4022 94.3877V98.4189H78.4022V94.3877H76.4022ZM76.4022 98.4189C76.4022 98.3333 76.4203 98.2442 76.4572 98.1612C76.493 98.0806 76.5377 98.0255 76.5701 97.9931L77.9843 99.4073C78.2284 99.1633 78.4022 98.824 78.4022 98.4189H76.4022ZM76.2866 98.5636C76.2909 98.5327 76.3045 98.472 76.3458 98.4002C76.3887 98.3254 76.4481 98.2625 76.5137 98.2171C76.6347 98.1336 76.7097 98.1533 76.621 98.1533V100.153C76.9281 100.153 77.3103 100.098 77.6501 99.8629C78.0252 99.6039 78.2149 99.2207 78.2678 98.8368L76.2866 98.5636ZM76.621 98.1533H60.4335V100.153H76.621V98.1533ZM60.4335 98.1533C60.421 98.1533 60.4345 98.1517 60.4645 98.1617C60.4967 98.1724 60.5323 98.1914 60.5638 98.2181L59.2719 99.7448C59.6184 100.038 60.032 100.153 60.4335 100.153V98.1533ZM60.5936 98.2443C60.6588 98.3041 60.6977 98.3718 60.717 98.4249C60.7342 98.4722 60.7303 98.4921 60.7303 98.4658H58.7303C58.7303 98.8726 58.8453 99.3549 59.2421 99.7186L60.5936 98.2443ZM80.9022 84.0439L79.9392 83.7743L79.9375 83.7808L80.9022 84.0439ZM82.1366 81.1221L82.9993 81.6278L83.0018 81.6235L82.1366 81.1221ZM89.4335 75.4814L89.1638 74.5185L89.1613 74.5192L89.4335 75.4814ZM99.5272 77.1221L98.9666 77.9501L98.9928 77.9679L99.0202 77.984L99.5272 77.1221ZM99.9335 77.5439L99.0497 78.0118L99.0602 78.0316L99.0715 78.051L99.9335 77.5439ZM99.8866 78.1377L100.709 78.7065L100.723 78.6857L100.737 78.664L99.8866 78.1377ZM97.2928 81.8877L98.069 82.5183L98.0933 82.4883L98.1153 82.4565L97.2928 81.8877ZM96.871 82.2314L97.23 83.1648L97.2476 83.158L97.2649 83.1506L96.871 82.2314ZM96.3085 82.0908L95.7287 82.9056L95.7579 82.9264L95.7885 82.945L96.3085 82.0908ZM94.5585 81.2002L94.2374 82.1473L94.2422 82.1489L94.5585 81.2002ZM88.246 82.7627L87.5066 82.0894L87.506 82.09L88.246 82.7627ZM87.0116 84.7783L86.0805 84.4134L86.0763 84.4244L87.0116 84.7783ZM87.0116 89.7158L86.0762 90.0697L86.0805 90.0807L87.0116 89.7158ZM88.246 91.7314L87.506 92.4041L87.5124 92.4112L87.519 92.4181L88.246 91.7314ZM93.6991 93.4971L93.8405 94.487L93.8543 94.485L93.8681 94.4827L93.6991 93.4971ZM94.871 93.2783L95.0671 94.2589L95.871 94.0981V93.2783H94.871ZM95.0428 88.5908L94.308 87.9125L94.2934 87.9284L94.2795 87.9449L95.0428 88.5908ZM100.433 88.5752L99.8568 89.3922L99.8677 89.3999L99.8788 89.4072L100.433 88.5752ZM100.246 97.5439L99.753 96.6739L99.7152 96.6953L99.6794 96.7199L100.246 97.5439ZM98.5741 98.4189L98.2109 97.4872L98.2055 97.4894L98.5741 98.4189ZM96.6678 99.0283L96.8995 100.001L96.9104 99.9985L96.6678 99.0283ZM89.4335 99.0752L89.1613 100.037L89.1638 100.038L89.4335 99.0752ZM84.0428 95.9346L83.3307 96.6368L83.3407 96.6466L84.0428 95.9346ZM82.1366 93.4658L81.2739 93.9715L81.2765 93.9759L82.1366 93.4658ZM80.9022 90.5596L79.9367 90.8203L79.94 90.8317L80.9022 90.5596ZM81.4803 87.2939C81.4803 86.2419 81.6105 85.2474 81.867 84.3071L79.9375 83.7808C79.6314 84.903 79.4803 86.0752 79.4803 87.2939H81.4803ZM81.8652 84.3136C82.1344 83.3521 82.5127 82.4578 82.9993 81.6278L81.2739 80.6164C80.698 81.5988 80.2534 82.6524 79.9393 83.7743L81.8652 84.3136ZM83.0018 81.6235C83.4901 80.781 84.0726 80.0222 84.75 79.3448L83.3357 77.9306C82.534 78.7324 81.8456 79.6298 81.2714 80.6206L83.0018 81.6235ZM84.75 79.3448C85.4403 78.6544 86.2009 78.0663 87.0329 77.5785L86.0215 75.8531C85.0411 76.4279 84.1454 77.1209 83.3357 77.9306L84.75 79.3448ZM87.0329 77.5785C87.8644 77.0911 88.7545 76.7127 89.7056 76.4437L89.1613 74.5192C88.05 74.8335 87.0025 75.278 86.0215 75.8531L87.0329 77.5785ZM89.7031 76.4444C90.6527 76.1785 91.6503 76.0439 92.6991 76.0439V74.0439C91.4771 74.0439 90.2975 74.201 89.1638 74.5185L89.7031 76.4444ZM92.6991 76.0439C93.8871 76.0439 94.9945 76.208 96.0263 76.5298L96.6219 74.6206C95.3829 74.2341 94.0735 74.0439 92.6991 74.0439V76.0439ZM96.0263 76.5298C97.067 76.8544 98.0463 77.327 98.9666 77.9501L100.088 76.294C99.0082 75.563 97.8521 75.0043 96.6219 74.6206L96.0263 76.5298ZM99.0202 77.984C99.0344 77.9924 99.0399 77.9979 99.0413 77.9993C99.0425 78.0006 99.0453 78.0036 99.0497 78.0118L100.817 77.0761C100.635 76.7309 100.367 76.4557 100.034 76.2601L99.0202 77.984ZM99.0715 78.051C99.0235 77.9693 98.9941 77.8594 99.003 77.7465C99.0109 77.6467 99.0442 77.5986 99.0363 77.6113L100.737 78.664C101.009 78.224 101.138 77.6194 100.795 77.0369L99.0715 78.051ZM99.0642 77.5688L96.4704 81.3188L98.1153 82.4565L100.709 78.7065L99.0642 77.5688ZM96.5167 81.2571C96.4845 81.2968 96.4629 81.3163 96.4541 81.3234C96.4459 81.3301 96.4532 81.3225 96.4771 81.3123L97.2649 83.1506C97.6028 83.0058 97.8659 82.7683 98.069 82.5183L96.5167 81.2571ZM96.512 81.2981C96.6907 81.2294 96.8309 81.2551 96.8713 81.2652C96.9086 81.2745 96.8973 81.2786 96.8284 81.2366L95.7885 82.945C96.0658 83.1138 96.6247 83.3976 97.23 83.1648L96.512 81.2981ZM96.8882 81.276C96.2666 80.8337 95.5946 80.4915 94.8747 80.2515L94.2422 82.1489C94.7724 82.3256 95.267 82.5771 95.7287 82.9056L96.8882 81.276ZM94.8795 80.2531C94.154 80.0072 93.3886 79.8877 92.5897 79.8877V81.8877C93.1867 81.8877 93.7338 81.9765 94.2374 82.1473L94.8795 80.2531ZM92.5897 79.8877C91.5757 79.8877 90.6215 80.0793 89.7413 80.476L90.5631 82.2994C91.1621 82.0294 91.8329 81.8877 92.5897 81.8877V79.8877ZM89.7413 80.476C88.8807 80.8639 88.1325 81.4021 87.5066 82.0894L88.9853 83.436C89.4219 82.9566 89.9446 82.5782 90.5631 82.2994L89.7413 80.476ZM87.506 82.09C86.8978 82.7591 86.424 83.5371 86.0805 84.4134L87.9427 85.1432C88.2034 84.4778 88.5525 83.9121 88.9859 83.4354L87.506 82.09ZM86.0763 84.4244C85.7393 85.3152 85.5741 86.2587 85.5741 87.2471H87.5741C87.5741 86.4855 87.7006 85.7831 87.9469 85.1322L86.0763 84.4244ZM85.5741 87.2471C85.5741 88.2355 85.7393 89.179 86.0763 90.0697L87.9469 89.3619C87.7006 88.711 87.5741 88.0087 87.5741 87.2471H85.5741ZM86.0805 90.0807C86.424 90.957 86.8978 91.735 87.506 92.4041L88.9859 91.0588C88.5525 90.582 88.2034 90.0163 87.9427 89.3509L86.0805 90.0807ZM87.519 92.4181C88.1442 93.0801 88.8886 93.6025 89.7413 93.9869L90.5631 92.1635C89.9367 91.8812 89.4103 91.5078 88.973 91.0448L87.519 92.4181ZM89.7413 93.9869C90.6215 94.3836 91.5757 94.5752 92.5897 94.5752V92.5752C91.8329 92.5752 91.1621 92.4335 90.5631 92.1635L89.7413 93.9869ZM92.5897 94.5752C93.0112 94.5752 93.4282 94.5459 93.8405 94.487L93.5577 92.5071C93.2408 92.5524 92.9183 92.5752 92.5897 92.5752V94.5752ZM93.8681 94.4827C94.2429 94.4184 94.6427 94.3438 95.0671 94.2589L94.6749 92.2977C94.2659 92.3795 93.8844 92.4507 93.5301 92.5114L93.8681 94.4827ZM95.871 93.2783V89.0908H93.871V93.2783H95.871ZM95.871 89.0908C95.871 89.089 95.8711 89.1092 95.8596 89.1425C95.8477 89.1772 95.8286 89.2104 95.8062 89.2368L94.2795 87.9449C93.9942 88.282 93.871 88.6856 93.871 89.0908H95.871ZM95.7777 89.2691C95.7326 89.3179 95.6776 89.353 95.6265 89.3725C95.58 89.3903 95.5568 89.3877 95.5741 89.3877V87.3877C95.1387 87.3877 94.6667 87.524 94.308 87.9125L95.7777 89.2691ZM95.5741 89.3877H99.9335V87.3877H95.5741V89.3877ZM99.9335 89.3877C99.8762 89.3877 99.838 89.376 99.8245 89.3709C99.8128 89.3665 99.8235 89.3686 99.8568 89.3922L101.01 87.7582C100.728 87.559 100.362 87.3877 99.9335 87.3877V89.3877ZM99.8788 89.4072C99.8582 89.3936 99.8082 89.3531 99.7665 89.2767C99.7242 89.1992 99.7147 89.1288 99.7147 89.0908H101.715C101.715 88.5258 101.444 88.0469 100.988 87.7431L99.8788 89.4072ZM99.7147 89.0908V96.8408H101.715V89.0908H99.7147ZM99.7147 96.8408C99.7147 96.8234 99.7172 96.7964 99.7268 96.7641C99.7365 96.7315 99.7506 96.703 99.7655 96.6807C99.7947 96.6368 99.8095 96.6419 99.753 96.6739L100.739 98.414C101.28 98.1076 101.715 97.5809 101.715 96.8408H99.7147ZM99.6794 96.7199C99.2481 97.0165 98.76 97.2732 98.2109 97.4872L98.9373 99.3507C99.6174 99.0855 100.244 98.7589 100.813 98.368L99.6794 96.7199ZM98.2055 97.4894C97.6447 97.7118 97.0515 97.9016 96.4253 98.0582L96.9104 99.9985C97.6175 99.8217 98.2952 99.6053 98.9427 99.3485L98.2055 97.4894ZM96.4362 98.0555C95.8165 98.2031 95.1864 98.3163 94.5457 98.3952L94.79 100.38C95.5035 100.292 96.2067 100.166 96.8995 100.001L96.4362 98.0555ZM94.5457 98.3952C93.9062 98.4739 93.2908 98.5127 92.6991 98.5127V100.513C93.3782 100.513 94.0753 100.468 94.79 100.38L94.5457 98.3952ZM92.6991 98.5127C91.6503 98.5127 90.6527 98.3781 89.7031 98.1122L89.1638 100.038C90.2975 100.356 91.4771 100.513 92.6991 100.513V98.5127ZM89.7056 98.1129C88.7545 97.8439 87.8644 97.4655 87.0329 96.9781L86.0215 98.7035C87.0025 99.2786 88.05 99.7231 89.1613 100.037L89.7056 98.1129ZM87.0329 96.9781C86.1983 96.4889 85.4362 95.9041 84.745 95.2225L83.3407 96.6466C84.1495 97.4442 85.0436 98.1303 86.0215 98.7035L87.0329 96.9781ZM84.7549 95.2324C84.0716 94.5395 83.4861 93.781 82.9967 92.9557L81.2765 93.9759C81.8496 94.9423 82.5349 95.8296 83.3308 96.6367L84.7549 95.2324ZM82.9993 92.9601C82.5119 92.1286 82.1335 91.2386 81.8645 90.2874L79.94 90.8317C80.2543 91.9431 80.6988 92.9905 81.2739 93.9715L82.9993 92.9601ZM81.8677 90.2989C81.6105 89.3466 81.4803 88.3459 81.4803 87.2939H79.4803C79.4803 88.5128 79.6314 89.6892 79.9368 90.8202L81.8677 90.2989ZM105.558 75.5908L106.296 76.2665L106.309 76.2519L106.322 76.2368L105.558 75.5908ZM119.496 76.0127L119.097 76.9298L119.109 76.9349L119.496 76.0127ZM122.012 77.6846L121.304 78.3917L121.31 78.3969L121.315 78.402L122.012 77.6846ZM123.699 80.1533L122.78 80.5473L122.784 80.5557L123.699 80.1533ZM123.199 87.0908L122.348 86.565L122.346 86.5694L123.199 87.0908ZM121.949 88.6377L122.64 89.3603L122.641 89.36L121.949 88.6377ZM120.355 89.8252L119.859 88.957L119.017 89.4384L119.473 90.295L120.355 89.8252ZM124.48 97.5752L125.375 97.128L125.369 97.1166L125.363 97.1053L124.48 97.5752ZM124.762 98.1064L123.885 98.5884L123.891 98.598L123.896 98.6075L124.762 98.1064ZM124.762 99.0127L124.128 98.2387L124.11 98.2536L124.093 98.2694L124.762 99.0127ZM118.058 98.5596L119.035 98.3426L119.005 98.2099L118.941 98.0899L118.058 98.5596ZM114.168 91.2471L115.051 90.7774L114.769 90.2471H114.168V91.2471ZM111.574 91.2471V90.2471H110.574V91.2471H111.574ZM105.574 98.9814L104.898 99.7186L104.913 99.732L104.928 99.7448L105.574 98.9814ZM111.574 86.1689H110.574V87.1689H111.574V86.1689ZM115.027 86.1533L115.098 87.1508L115.129 87.1486L115.159 87.1445L115.027 86.1533ZM115.527 86.0908L115.417 85.0969L115.41 85.0977L115.527 86.0908ZM116.527 85.7783L117.023 86.6466L117.033 86.641L116.527 85.7783ZM117.277 85.1221L116.485 84.5123L116.481 84.517L117.277 85.1221ZM117.746 84.2314L116.804 83.897L116.799 83.9107L116.794 83.9244L117.746 84.2314ZM117.73 82.2783L116.788 82.6127L116.795 82.6314L116.802 82.6497L117.73 82.2783ZM117.23 81.4033L116.438 82.013L116.451 82.0301L116.465 82.0465L117.23 81.4033ZM116.465 80.7314L115.924 81.5726L115.941 81.5837L115.959 81.5941L116.465 80.7314ZM115.48 80.3721L115.622 79.3821L115.586 79.377L115.549 79.3744L115.48 80.3721ZM114.637 80.3252L114.557 81.322L114.577 81.3236L114.597 81.3244L114.637 80.3252ZM111.574 80.2939V79.2939H110.574V80.2939H111.574ZM106.387 98.4658V76.1221H104.387V98.4658H106.387ZM106.387 76.1221C106.387 76.0888 106.391 76.0944 106.381 76.1252C106.37 76.1598 106.344 76.2133 106.296 76.2665L104.821 74.9151C104.486 75.2812 104.387 75.7319 104.387 76.1221H106.387ZM106.322 76.2368C106.263 76.3066 106.192 76.3504 106.134 76.3725C106.083 76.3921 106.061 76.3877 106.09 76.3877V74.3877C105.665 74.3877 105.16 74.5132 104.795 74.9449L106.322 76.2368ZM106.09 76.3877H116.418V74.3877H106.09V76.3877ZM116.418 76.3877C117.381 76.3877 118.271 76.5703 119.097 76.9298L119.895 75.0956C118.805 74.6217 117.642 74.3877 116.418 74.3877V76.3877ZM119.109 76.9349C119.964 77.2934 120.692 77.7796 121.304 78.3917L122.719 76.9775C121.914 76.1729 120.965 75.5445 119.883 75.0905L119.109 76.9349ZM121.315 78.402C121.936 79.0051 122.424 79.7172 122.78 80.5472L124.618 79.7594C124.161 78.6937 123.525 77.7599 122.708 76.9671L121.315 78.402ZM122.784 80.5557C123.143 81.3735 123.324 82.2413 123.324 83.1689H125.324C125.324 81.9716 125.088 80.829 124.615 79.7509L122.784 80.5557ZM123.324 83.1689C123.324 83.8065 123.238 84.4015 123.07 84.9583L124.985 85.5358C125.213 84.7801 125.324 83.9897 125.324 83.1689H123.324ZM123.07 84.9583C122.897 85.5327 122.656 86.0674 122.349 86.565L124.05 87.6166C124.45 86.9684 124.762 86.2739 124.985 85.5358L123.07 84.9583ZM122.346 86.5694C122.048 87.0562 121.687 87.5046 121.258 87.9154L122.641 89.36C123.191 88.8333 123.662 88.2505 124.052 87.6123L122.346 86.5694ZM121.258 87.9151C120.838 88.3163 120.373 88.6635 119.859 88.957L120.851 90.6934C121.505 90.3202 122.102 89.8757 122.64 89.3603L121.258 87.9151ZM119.473 90.295L123.598 98.045L125.363 97.1053L121.238 89.3553L119.473 90.295ZM123.586 98.0224C123.667 98.1839 123.767 98.3732 123.885 98.5884L125.638 97.6245C125.527 97.423 125.44 97.2582 125.375 97.128L123.586 98.0224ZM123.896 98.6075C123.912 98.6341 123.922 98.6554 123.93 98.6715C123.937 98.6876 123.941 98.697 123.942 98.7C123.943 98.703 123.941 98.6979 123.939 98.6853C123.936 98.6726 123.933 98.651 123.933 98.6221H125.933C125.933 98.2275 125.784 97.8769 125.627 97.6054L123.896 98.6075ZM123.933 98.6221C123.933 98.5903 123.939 98.5237 123.975 98.442C124.013 98.3569 124.069 98.2875 124.128 98.2387L125.395 99.7867C125.773 99.4776 125.933 99.0461 125.933 98.6221H123.933ZM124.093 98.2694C124.236 98.1407 124.361 98.1533 124.308 98.1533V100.153C124.652 100.153 125.079 100.072 125.431 99.756L124.093 98.2694ZM124.308 98.1533H118.824V100.153H124.308V98.1533ZM118.824 98.1533C118.835 98.1533 118.854 98.1552 118.877 98.1625C118.9 98.1699 118.915 98.179 118.921 98.1833L117.758 99.8108C118.072 100.035 118.436 100.153 118.824 100.153V98.1533ZM118.921 98.1833C118.948 98.2024 118.977 98.2315 119.001 98.2688C119.025 98.3052 119.033 98.3337 119.035 98.3426L117.082 98.7765C117.173 99.186 117.397 99.5524 117.758 99.8108L118.921 98.1833ZM118.941 98.0899L115.051 90.7774L113.285 91.7168L117.176 99.0293L118.941 98.0899ZM114.168 90.2471H111.574V92.2471H114.168V90.2471ZM110.574 91.2471V98.4658H112.574V91.2471H110.574ZM110.574 98.4658C110.574 98.4941 110.57 98.4765 110.586 98.4312C110.604 98.3804 110.642 98.3126 110.707 98.2514C110.84 98.1271 110.946 98.1533 110.84 98.1533V100.153C111.223 100.153 111.696 100.065 112.074 99.7115C112.464 99.3464 112.574 98.8666 112.574 98.4658H110.574ZM110.84 98.1533H106.09V100.153H110.84V98.1533ZM106.09 98.1533C106.077 98.1533 106.091 98.1517 106.121 98.1617C106.153 98.1724 106.189 98.1914 106.22 98.2181L104.928 99.7448C105.275 100.038 105.688 100.153 106.09 100.153V98.1533ZM106.25 98.2443C106.315 98.3041 106.354 98.3718 106.373 98.4249C106.39 98.4722 106.387 98.4921 106.387 98.4658H104.387C104.387 98.8726 104.502 99.3549 104.898 99.7186L106.25 98.2443ZM111.574 87.1689H114.527V85.1689H111.574V87.1689ZM114.527 87.1689C114.732 87.1689 114.923 87.1633 115.098 87.1508L114.956 85.1559C114.839 85.1642 114.697 85.1689 114.527 85.1689V87.1689ZM115.159 87.1445C115.31 87.1245 115.471 87.1043 115.644 87.084L115.41 85.0977C115.229 85.119 115.057 85.1405 114.895 85.1621L115.159 87.1445ZM115.638 87.0847C116.132 87.0298 116.599 86.8889 117.023 86.6466L116.031 84.9101C115.872 85.0011 115.673 85.0685 115.417 85.0969L115.638 87.0847ZM117.033 86.641C117.44 86.4026 117.791 86.0988 118.073 85.7272L116.481 84.517C116.368 84.6662 116.219 84.7999 116.022 84.9156L117.033 86.641ZM118.07 85.7318C118.348 85.3706 118.558 84.9714 118.698 84.5384L116.794 83.9244C116.726 84.1373 116.623 84.3319 116.485 84.5124L118.07 85.7318ZM118.688 84.5659C118.841 84.1352 118.918 83.6888 118.918 83.2314H116.918C116.918 83.4616 116.88 83.6818 116.804 83.897L118.688 84.5659ZM118.918 83.2314C118.918 82.776 118.829 82.3325 118.659 81.9069L116.802 82.6497C116.882 82.8492 116.918 83.0411 116.918 83.2314H118.918ZM118.673 81.9439C118.519 81.5092 118.292 81.1128 117.996 80.7601L116.465 82.0465C116.606 82.2147 116.713 82.4016 116.788 82.6127L118.673 81.9439ZM118.023 80.7936C117.734 80.4182 117.381 80.1093 116.97 79.8687L115.959 81.5941C116.153 81.7078 116.31 81.8468 116.438 82.013L118.023 80.7936ZM117.005 79.8903C116.586 79.6203 116.12 79.4532 115.622 79.3821L115.339 81.362C115.57 81.3951 115.761 81.4676 115.924 81.5726L117.005 79.8903ZM115.549 79.3744C115.239 79.353 114.948 79.3369 114.677 79.326L114.597 81.3244C114.846 81.3344 115.118 81.3494 115.412 81.3697L115.549 79.3744ZM114.716 79.3284C114.426 79.3051 114.118 79.2939 113.793 79.2939V81.2939C114.072 81.2939 114.327 81.3036 114.557 81.322L114.716 79.3284ZM113.793 79.2939H111.574V81.2939H113.793V79.2939ZM110.574 80.2939V86.1689H112.574V80.2939H110.574Z" fill="black"/>
</svg>
